<?xml version="1.0" encoding="UTF-8"?>
<svg id="Layer_2" data-name="Layer 2" xmlns="http://www.w3.org/2000/svg" viewBox="0 0 197.11 120.04">
  <defs>
    <style>
      .cls-1 {
        fill: #ffb703;
      }

      .cls-2 {
        fill: #fff;
      }

      .cls-3 {
        fill: none;
      }

      .cls-4 {
        fill: #023047;
      }
    </style>
  </defs>
  <g id="Layer_2-2" data-name="Layer 2">
    <g>
      <g>
        <path class="cls-4" d="M105.54,6.8h6.52l4.99,30.64h-4.81l-.88-6.08v.09h-5.47l-.88,6h-4.46l4.99-30.64ZM110.79,27.28l-2.14-15.14h-.09l-2.1,15.14h4.33Z"/>
        <path class="cls-4" d="M119.37,6.8h4.81v26.26h7.92v4.38h-12.74V6.8Z"/>
        <path class="cls-4" d="M138.32,6.8h6.52l4.99,30.64h-4.81l-.88-6.08v.09h-5.47l-.88,6h-4.46l4.99-30.64ZM143.57,27.28l-2.14-15.14h-.09l-2.1,15.14h4.33Z"/>
        <path class="cls-4" d="M152.15,6.8h6.87l3.06,21.93h.09l3.06-21.93h6.87v30.64h-4.55V14.24h-.09l-3.5,23.2h-4.03l-3.5-23.2h-.09v23.2h-4.2V6.8Z"/>
        <path class="cls-4" d="M177.23,35.86c-1.25-1.34-1.88-3.24-1.88-5.69V14.07c0-2.45.63-4.35,1.88-5.69,1.25-1.34,3.06-2.01,5.43-2.01s4.17.67,5.43,2.01c1.25,1.34,1.88,3.24,1.88,5.69v16.11c0,2.45-.63,4.35-1.88,5.69-1.25,1.34-3.06,2.01-5.43,2.01s-4.17-.67-5.43-2.01ZM185.15,30.48V13.76c0-2.01-.83-3.02-2.5-3.02s-2.49,1.01-2.49,3.02v16.72c0,2.01.83,3.02,2.49,3.02s2.5-1.01,2.5-3.02Z"/>
        <path class="cls-1" d="M102.11,41.81h4.81v26.26h7.92v4.38h-12.74v-30.64Z"/>
        <path class="cls-1" d="M117.17,41.81h4.81v30.64h-4.81v-30.64Z"/>
        <path class="cls-1" d="M129.33,46.19h-5.03v-4.38h14.88v4.38h-5.03v26.26h-4.81v-26.26Z"/>
        <path class="cls-1" d="M145.7,46.19h-5.03v-4.38h14.88v4.38h-5.03v26.26h-4.81v-26.26Z"/>
        <path class="cls-1" d="M157.87,41.81h13.13v4.38h-8.32v8.1h6.61v4.38h-6.61v9.41h8.32v4.38h-13.13v-30.64Z"/>
        <path class="cls-1" d="M173.76,41.81h7.13c2.48,0,4.29.58,5.43,1.73,1.14,1.15,1.71,2.93,1.71,5.32v1.88c0,3.18-1.05,5.19-3.15,6.04v.09c1.17.35,1.99,1.07,2.47,2.14.48,1.08.72,2.52.72,4.33v5.38c0,.88.03,1.58.09,2.12.06.54.2,1.07.44,1.6h-4.9c-.17-.5-.29-.96-.35-1.4-.06-.44-.09-1.23-.09-2.36v-5.6c0-1.4-.23-2.38-.68-2.93-.45-.55-1.23-.83-2.34-.83h-1.66v13.13h-4.81v-30.64ZM180.32,54.94c.96,0,1.69-.25,2.17-.74s.72-1.33.72-2.5v-2.36c0-1.11-.2-1.91-.59-2.41-.39-.5-1.01-.74-1.86-.74h-2.19v8.75h1.75Z"/>
        <path class="cls-4" d="M102.4,76.83h7.09c2.39,0,4.19.64,5.38,1.93,1.2,1.28,1.79,3.17,1.79,5.65v3.02c0,2.48-.6,4.36-1.79,5.65-1.2,1.28-2.99,1.93-5.38,1.93h-2.28v12.47h-4.81v-30.64ZM109.49,90.61c.79,0,1.38-.22,1.77-.66.39-.44.59-1.18.59-2.23v-3.63c0-1.05-.2-1.79-.59-2.23s-.98-.66-1.77-.66h-2.28v9.41h2.28Z"/>
        <path class="cls-4" d="M121.48,76.83h6.52l4.99,30.64h-4.81l-.88-6.08v.09h-5.47l-.88,6h-4.46l4.99-30.64ZM126.74,97.31l-2.14-15.14h-.09l-2.1,15.14h4.33Z"/>
        <path class="cls-4" d="M137.07,81.2h-5.03v-4.38h14.88v4.38h-5.03v26.26h-4.81v-26.26Z"/>
        <path class="cls-4" d="M149.23,76.83h7.13c2.48,0,4.29.58,5.43,1.73,1.14,1.15,1.71,2.93,1.71,5.32v1.88c0,3.18-1.05,5.19-3.15,6.04v.09c1.17.35,1.99,1.07,2.47,2.14.48,1.08.72,2.52.72,4.33v5.38c0,.88.03,1.58.09,2.12.06.54.2,1.07.44,1.6h-4.9c-.17-.5-.29-.96-.35-1.4-.06-.44-.09-1.23-.09-2.36v-5.6c0-1.4-.23-2.38-.68-2.93-.45-.55-1.23-.83-2.34-.83h-1.66v13.13h-4.81v-30.64ZM155.8,89.96c.96,0,1.69-.25,2.17-.74s.72-1.33.72-2.5v-2.36c0-1.11-.2-1.91-.59-2.41-.39-.5-1.01-.74-1.86-.74h-2.19v8.75h1.75Z"/>
        <path class="cls-4" d="M168.4,105.89c-1.25-1.34-1.88-3.24-1.88-5.69v-16.11c0-2.45.63-4.35,1.88-5.69,1.25-1.34,3.06-2.01,5.43-2.01s4.17.67,5.43,2.01c1.25,1.34,1.88,3.24,1.88,5.69v16.11c0,2.45-.63,4.35-1.88,5.69-1.25,1.34-3.06,2.01-5.43,2.01s-4.17-.67-5.43-2.01ZM176.32,100.5v-16.72c0-2.01-.83-3.02-2.5-3.02s-2.49,1.01-2.49,3.02v16.72c0,2.01.83,3.02,2.49,3.02s2.5-1.01,2.5-3.02Z"/>
        <path class="cls-4" d="M184.38,76.83h4.81v26.26h7.92v4.38h-12.74v-30.64Z"/>
      </g>
      <g>
        <path class="cls-3" d="M33.09,47.66c-.4-.38-.81-.74-1.24-1.08.43.34.84.69,1.24,1.08Z"/>
        <path class="cls-3" d="M77.19,28.44c-.49-.58-.98-1.13-1.49-1.65.51.51,1,1.07,1.49,1.65Z"/>
        <path class="cls-3" d="M29.63,79.8s0,0,0,0c.03.02.06.03.09.05-.03-.02-.06-.03-.09-.05Z"/>
        <path class="cls-3" d="M46.15,74.15s.02.03.03.04c0-.01-.02-.03-.02-.04v-2.48l2.62-2.77-2.62,2.77v2.48Z"/>
        <path class="cls-3" d="M40.12,64.61h11.05c.25,0,.45.12.57.3-.12-.18-.32-.3-.57-.3h-11.05c-.47,0-.77.42-.71.82-.06-.4.24-.82.7-.82Z"/>
        <path class="cls-3" d="M54.69,82.66c-2.32,0-4.49-.89-6.42-2.42,1.93,1.54,4.11,2.43,6.42,2.43,2.53,0,4.91-1.04,6.97-2.86,0,0-.01,0-.02,0-2.05,1.81-4.43,2.85-6.96,2.85Z"/>
        <path class="cls-3" d="M36.6,82.66c-2.35,0-4.56-.9-6.5-2.48,1.94,1.58,4.16,2.48,6.51,2.48,3.42,0,6.56-1.91,9.01-5.06h0c-2.45,3.15-5.58,5.05-9.01,5.05Z"/>
        <path class="cls-3" d="M45.13,71.67l-4.26-4.5,4.25,4.51v2.48c-.04.07-.08.14-.12.21.04-.07.08-.14.13-.21v-2.48Z"/>
        <path class="cls-1" d="M74.08,45.45l-.22.73-.68,2.28c-.86,2.81-2.59,5.11-4.79,6.73-3.22,2.36-7.46,3.25-11.58,2l-.31-.09-1.47-.45c-.78.58-1.14,1.74-1.75,3.37-.03-.33-.04-.67-.04-1.01,0-.17,0-.33.01-.5.07-1.81.51-3.61,1.21-5.31.67-1.63,1.58-3.16,2.71-4.48.02-.04.06-.07.09-.1.21-.26.44-.5.67-.73.07-.07.13-.14.21-.21l.03-.03c.39-.38.8-.73,1.22-1.07.02,0,.03-.02.05-.04l2.63,9.73c.02.09.07.14.13.19.12.12.29.14.44.07.1-.05.19-.13.22-.26l3.26-12.07.05-.17c1.2-.1,2.42-.05,3.63.19.02.01.03.01.05.01h.02c.4.08.81.19,1.21.31l1.29.39,1.71.52Z"/>
        <path class="cls-1" d="M37.97,60.02c-.04-.09-.06-.17-.1-.26-.07-.19-.13-.37-.2-.54-.12-.34-.24-.66-.37-.95-.12-.29-.25-.56-.38-.79-.14-.23-.28-.43-.45-.6-.08-.08-.17-.16-.26-.23l-1.77.54c-.06.02-.12.03-.18.04-2.57.75-5.2.67-7.58-.09-3.98-1.25-7.3-4.38-8.61-8.68l-.68-2.26-.23-.75,1.68-.51,1.32-.4c.39-.12.78-.21,1.17-.29,1.25-.26,2.51-.33,3.75-.22l3.31,12.24c.04.15.14.22.25.27.15.06.32.02.44-.11.04-.05.08-.09.1-.16l2.62-9.73s.03.03.05.04c.43.34.84.69,1.24,1.08l.02.02c.07.07.14.14.21.21.23.23.46.47.67.73.03.03.06.06.08.1,1.07,1.26,1.96,2.71,2.62,4.25.96,2.24,1.45,4.67,1.28,7.05Z"/>
        <path class="cls-2" d="M24.31,20.83h0c-.05.02-.12.05-.16.08l-5.55.5h-.04l-3.68.33,2.3.21,2.83.26,1.33.12s-.01,0-.01.01c-1.03.6-2.02,1.28-2.98,2.04-.6.47-1.19.98-1.76,1.52-.29.27-.57.55-.85.84-1.38,1.43-2.68,3.07-3.87,4.93-.25.4-.51.79-.75,1.21l-.06-1.21v-.15s-.01-.04-.01-.04l-.71-15.04c-.01-.22,0-.44-.01-.66-.13-3.68.18-7.35.93-10.96l.32-1.55c.11-.5.56-.81,1.02-.8l.23.36,6.29,9.87.14.21.02.04.06.08.05.07.2.33.08.12-4.75.2,4.95.21h.06l.78,1.22.43.66v.02s.01.01.01.01l.08.12-2.58.13-3.75.19,5.54.29,1.24.07.7,1.11.22.35.27.42-2.11.13h-.01l-3.55.22-2.33.14,8.66.54.35.55.09.14.35.56Z"/>
        <path class="cls-2" d="M81.06,16.44l-.04.89-.68,14.18v.04l-.06,1.32c-.34-.56-.68-1.11-1.02-1.63-.66-1-1.35-1.93-2.07-2.8-.49-.58-.98-1.14-1.49-1.65-.76-.78-1.55-1.51-2.36-2.17-1.05-.85-2.13-1.61-3.27-2.28h-.01s1.33-.13,1.33-.13l2.99-.27,2.13-.2-3.68-.33h-.04l-5.54-.5c-.05-.03-.11-.06-.17-.08l.44-.7.2-.32.14-.23,8.67-.54-2.38-.15-3.5-.21h-.01l-2.11-.13.19-.3.3-.47.7-1.11,1.27-.07,5.51-.29-3.77-.19-2.57-.13.07-.12h.01s.03-.05.03-.05l.41-.64.78-1.22h.07l4.95-.21-4.76-.2.07-.11.21-.34.14-.21.03-.04.1-.15,6.53-10.23h.02c.45,0,.89.31.99.8l.13.64.19.91c.31,1.49.53,2.99.69,4.49.26,2.37.36,4.75.24,7.13Z"/>
        <path class="cls-2" d="M83.65,80.65s-.03-.03-.05-.05c-.09-.09-.17-.18-.26-.27-.09-.09-.17-.18-.27-.27-.07-.08-.14-.15-.22-.22-.16-.16-.33-.32-.5-.48-.03-.03-.07-.06-.11-.1-.19-.17-.38-.34-.58-.5-.46-.4-.95-.79-1.46-1.15-.02-.02-.04-.03-.06-.05-.15-.11-.3-.22-.45-.32-.23-.17-.46-.32-.7-.47-.24-.16-.48-.31-.73-.46-.24-.16-.49-.31-.75-.45-.25-.15-.51-.29-.77-.42-.24-.13-.48-.26-.72-.37-.29-.15-.59-.29-.89-.43-.32-.15-.65-.29-.98-.42-.21-.09-.42-.17-.63-.25-.47-.19-.94-.35-1.42-.5-.07-.02-.14-.05-.2-.07-.05-.02-.09-.04-.14-.05-.02-.01-.05-.01-.07-.02-.17-.05-.32-.1-.49-.14-.15-.05-.29-.09-.44-.13-.05-.01-.11-.03-.16-.04-.1-.03-.2-.06-.3-.08-.3-.08-.59-.15-.88-.21-.05-.02-.09-.02-.13-.03-.05-.01-.09-.02-.13-.03-.25-.05-.49-.1-.73-.14-.02,0-.05-.01-.07-.01-.04,0-.07-.02-.11-.02-.04-.01-.07-.02-.11-.02-.04-.01-.08-.01-.12-.02-.22-.04-.44-.07-.66-.1-.05-.01-.1-.01-.15-.02-.21-.03-.42-.05-.63-.07-.09,0-.17-.02-.25-.03-.12-.01-.23-.02-.34-.03.08-.72.11-1.44.11-2.18v-.33c1.4-.15,2.88-.18,4.41-.09.06.01.11.01.17.01.03,0,.07,0,.1.01.28.02.55.04.83.07.32.03.64.07.96.12.19.02.38.05.57.08.29.05.59.1.89.16.15.03.29.06.44.09.22.04.45.1.68.15.22.05.44.11.67.16,3.92,1.01,7.36,2.73,10,4.85-.17-.17-.35-.34-.54-.5-.12-.12-.25-.23-.38-.34l-.18-.15c-.19-.16-.39-.32-.59-.48-.01-.01-.03-.02-.05-.04-.01-.01-.03-.02-.04-.03-.01,0-.01,0-.02,0-.01-.01-.01-.02-.02-.02,0,0-.01,0-.01-.01-.01-.01-.03-.02-.04-.03-.02-.01-.04-.02-.06-.04-.01-.01-.03-.02-.04-.03-.26-.2-.52-.39-.8-.58-.21-.14-.42-.28-.64-.42-.21-.14-.43-.28-.65-.41-.31-.19-.63-.37-.96-.55-.48-.26-.98-.51-1.49-.74-.36-.17-.73-.33-1.1-.48-.34-.14-.68-.28-1.03-.4-.11-.04-.22-.08-.33-.12-.26-.09-.52-.18-.78-.26-.01,0-.02-.01-.03-.01-.22-.07-.44-.14-.66-.2-.34-.11-.68-.2-1.03-.29s-.7-.17-1.05-.25c-.39-.08-.78-.16-1.17-.23-.36-.07-.71-.12-1.06-.17-.09,0-.18-.03-.27-.04-.17-.03-.34-.05-.51-.06-.03,0-.06-.01-.09-.01h-.03c-.18-.02-.37-.04-.55-.05-.09-.01-.19-.02-.28-.03-.19,0-.37-.02-.56-.03-.23-.01-.46-.03-.69-.03-.23,0-.46,0-.68,0-.33,0-.65,0-.97.02-.23.01-.45.02-.68.04h-.09c-.05,0-.11,0-.16,0-.09.01-.18.01-.27.02-.5-.65-1.03-1.28-1.61-1.87.34-.15.68-.3,1.03-.44.01-.01.03-.01.04-.01.09-.04.17-.07.25-.1.08-.03.17-.06.26-.09.05-.02.1-.04.16-.06.05-.03.11-.05.16-.06.1-.04.2-.07.31-.11.13-.04.26-.09.39-.12.06-.02.12-.04.18-.06.09-.03.17-.06.26-.08.08-.03.17-.06.25-.07.06-.02.12-.04.19-.05.04-.02.09-.03.13-.04.17-.05.34-.09.51-.13.28-.08.56-.15.85-.21.36-.08.72-.15,1.09-.21.35-.06.71-.12,1.07-.16.05-.01.1-.02.15-.02.17-.03.34-.05.52-.07.11-.01.23-.02.35-.03.02-.01.04-.01.06-.01.03,0,.07-.01.1-.01.4-.04.81-.07,1.22-.09h.11c.08-.01.16-.01.24-.01h.01c.36-.02.73-.03,1.1-.03,4.06,0,7.81.82,10.9,2.21-.34-.19-.7-.38-1.06-.56-.14-.07-.28-.14-.42-.2-.14-.07-.27-.13-.41-.19-.01,0-.02-.01-.03-.01t-.02,0s-.04-.02-.06-.03c-.34-.15-.7-.29-1.06-.43-.04-.01-.09-.03-.13-.04-.38-.14-.76-.27-1.16-.4-.41-.13-.84-.25-1.28-.36-.43-.11-.87-.21-1.32-.3-.42-.09-.85-.16-1.29-.23-.02,0-.05-.01-.08-.01-.17-.02-.35-.05-.52-.07-.16-.03-.32-.05-.49-.07h-.04s-.11-.01-.16-.02c-.14-.01-.29-.03-.43-.04-.23-.02-.45-.04-.68-.05-.17,0-.35-.02-.52-.03-.25-.02-.49-.02-.73-.03-.25-.01-.5-.01-.74-.01-.96,0-1.91.05-2.83.14-.34.03-.67.07-.99.12-.26.03-.52.07-.77.11-.35.05-.7.11-1.04.18-.4.08-.8.17-1.19.27-.19.04-.38.09-.57.15-.19.05-.38.11-.57.16-.11.03-.23.07-.34.11-.26.07-.51.16-.76.25-.15.05-.3.11-.45.16-.24.09-.47.18-.71.28-.07.02-.14.05-.21.08-2.23-2-4.94-3.61-7.97-4.69-.03,0-.05-.02-.08-.03-.01,0-.02-.01-.03-.01-.08-.03-.16-.06-.24-.08l-2.16-.5-5.28-32.68c-.3-.25-.69-.38-1.08-.38s-.78.13-1.07.38l-5.29,32.68-2.15.5c-.08.02-.17.05-.25.08-.01,0-.02.01-.03.01-.03.01-.05.02-.07.03-3.04,1.08-5.75,2.69-7.98,4.69-.07-.03-.14-.06-.21-.08-.36-.15-.73-.29-1.1-.42-.03-.01-.06-.02-.09-.03-.22-.08-.45-.16-.68-.23-.13-.04-.26-.08-.39-.12-.03,0-.07-.02-.1-.03-.23-.07-.47-.14-.72-.2-.05-.01-.09-.02-.14-.03-.28-.07-.57-.14-.86-.2-.38-.09-.76-.16-1.14-.23-.19-.04-.38-.07-.58-.1-.2-.03-.4-.06-.59-.08-.05-.01-.09-.01-.14-.02-.28-.04-.56-.07-.85-.1-.93-.09-1.87-.14-2.83-.14-.25,0-.49,0-.73.01-.25.01-.5.01-.74.03-.17.01-.35.02-.52.03-.23.01-.45.03-.68.05-.17,0-.34.03-.51.05-.03,0-.07.01-.1.01-.2.02-.39.05-.59.08-.18.02-.35.04-.52.07-.17.02-.33.05-.5.08-.07.01-.13.03-.2.04-.07,0-.14.02-.21.03-.2.04-.39.07-.58.11-.34.07-.67.15-.99.23-.11.03-.22.06-.33.09-.37.09-.73.2-1.08.31-.31.09-.61.19-.91.3-.03.01-.06.02-.09.03-.15.06-.3.11-.44.16-.3.12-.59.24-.87.36-.01.01-.03.01-.04.02-.02.01-.03.01-.05.02-.03.01-.07.02-.1.04-.07.03-.13.06-.2.1-.2.09-.41.18-.6.28-.14.06-.27.13-.41.21-.22.11-.44.23-.65.35,3.1-1.39,6.85-2.21,10.91-2.21.36,0,.72.01,1.07.03.09,0,.17,0,.26.01h.02s.01-.01.02,0h.08c.15,0,.3.01.45.03.27.01.53.03.79.06.05.01.1.01.15.02.1.01.2.02.3.03.2,0,.4.04.6.07.06.01.13.02.19.03.33.04.67.09,1,.15.01,0,.03,0,.05,0,.35.06.7.13,1.04.2.41.09.8.19,1.2.29.41.11.82.23,1.22.36.09.03.18.06.27.09.23.08.46.16.69.25.19.06.38.13.56.2.35.14.69.29,1.02.44-.57.59-1.11,1.22-1.6,1.87-.09-.01-.18-.01-.27-.02-.05,0-.1,0-.15,0-.04,0-.08-.01-.12-.01-.06,0-.12-.01-.18-.01h-.08c-.13-.01-.27-.01-.41-.02-.32-.01-.64-.02-.97-.02-.45,0-.91,0-1.38.04-.18.01-.36.02-.54.03-.09.01-.18.02-.27.02-.04,0-.08.01-.12.01-.14.02-.28.03-.43.05h-.06s-.08.01-.11.01c-.16.02-.32.03-.48.06-.15.02-.29.03-.44.06-.15.03-.29.05-.44.07l-.1.02s-.04.01-.06.01c-.24.04-.48.07-.72.13-.26.05-.51.1-.77.16-.34.07-.68.15-1.02.24-.35.09-.69.18-1.03.29-.23.06-.45.13-.66.2-.38.12-.76.25-1.12.38-.42.15-.82.31-1.22.48-.31.13-.63.27-.93.41-.25.11-.5.23-.74.35-.07.04-.14.07-.21.11-.03.02-.07.03-.1.06-.27.13-.53.27-.79.42-.36.2-.71.4-1.05.62-.28.17-.55.35-.82.54-.15.1-.31.21-.45.32-.12.08-.23.16-.34.24-.03.03-.07.06-.1.08-.04.03-.07.05-.1.08-.01,0-.01.01-.02.01-.26.2-.52.41-.76.62-.14.11-.27.23-.4.35-.03.03-.06.05-.09.08-.19.16-.37.33-.54.5,2.65-2.12,6.08-3.84,10.01-4.85.22-.05.45-.11.68-.16.11-.03.22-.05.33-.08.11-.03.23-.05.34-.07.15-.03.29-.06.44-.09.3-.06.6-.11.89-.16.18-.03.36-.06.55-.08.32-.05.64-.08.96-.12.3-.03.59-.05.89-.07.07-.01.15-.01.23-.02,1.52-.09,3-.06,4.4.09v.33c0,.74.03,1.46.12,2.18-.11.01-.23.02-.34.03-.09.01-.18.02-.28.03-.03,0-.06.01-.09.01-.08.01-.17.02-.26.03-.08,0-.17.02-.26.03-.27.03-.54.07-.82.12-.09.01-.18.03-.27.05-.27.04-.55.09-.82.15-.1.02-.2.04-.3.07-.24.05-.49.11-.74.18-.08.02-.16.04-.24.06-.08.02-.16.04-.24.06-.03.01-.05.01-.08.02-.01,0-.02.01-.03.01-.21.05-.43.11-.64.18-.09.02-.17.05-.26.08-.07,0-.14.03-.21.06-.05.02-.11.04-.17.06-.1.03-.2.07-.3.1-.11.04-.22.07-.33.11-.09.03-.18.06-.27.1-.37.13-.74.27-1.1.42s-.73.3-1.09.47c-.31.14-.62.29-.92.44-.23.12-.46.23-.69.36-.29.15-.57.31-.85.46-.46.27-.92.54-1.35.83-.36.23-.7.47-1.04.71-.24.16-.47.34-.7.52-.34.25-.67.52-.99.8-.14.11-.28.23-.41.36-.17.14-.34.29-.5.46-.05.04-.11.09-.16.14-.04.04-.08.08-.12.12-.27.25-.52.51-.76.77-.01.02-.03.03-.04.04l-.02.02c-.62.66-1.17,1.34-1.67,2.03,2.23-2.55,5.32-4.85,9.01-6.53.19-.08.38-.17.57-.25.1-.05.21-.09.32-.13.09-.04.17-.08.26-.11.05-.02.09-.04.14-.06.08-.04.17-.07.25-.1.1-.04.21-.08.31-.12.1-.04.19-.07.29-.11.09-.04.19-.07.28-.1.05-.03.11-.04.16-.06.36-.13.73-.24,1.1-.35.02-.01.05-.01.07-.02h.01c.2-.07.38-.12.58-.17.01,0,.03-.01.04-.01.04,0,.07-.02.11-.03.07-.02.14-.04.22-.05.05-.02.09-.03.14-.04.14-.05.28-.08.42-.11.06-.02.12-.03.18-.04.32-.08.64-.15.95-.2.19-.05.38-.08.57-.11.24-.04.49-.08.73-.11.17-.03.35-.05.51-.07.03,0,.05-.01.08-.01.21-.02.42-.04.63-.06.25-.03.5-.04.74-.05.05-.01.11-.01.16-.01.25-.02.5-.03.74-.03.84,4.51,3.21,8.51,6.59,11.43,1.34,1.17,2.85,2.17,4.47,2.95,2.74,1.35,5.83,2.1,9.09,2.1s6.35-.75,9.09-2.1c1.62-.78,3.13-1.78,4.47-2.95,3.38-2.92,5.75-6.92,6.59-11.43.27,0,.55.01.83.03.04.01.07.01.11.01.16,0,.32,0,.48.03.05,0,.1.01.15.01.3.03.61.06.93.09.31.04.63.09.95.15.21.03.42.07.63.11h.02c.63.12,1.27.27,1.9.44.05.01.1.03.15.04.03,0,.07.02.1.03.19.06.38.11.58.17.23.06.45.13.68.21.15.04.3.09.45.14.44.15.87.32,1.3.49.44.18.87.36,1.3.56,3.69,1.68,6.78,3.98,9.01,6.53-.5-.69-1.05-1.37-1.67-2.03l-.02-.02ZM54.69,82.66c-2.32,0-4.5-.89-6.42-2.43-.93-.73-1.8-1.61-2.59-2.63h-.07c-2.45,3.15-5.59,5.06-9.01,5.06-2.35,0-4.57-.91-6.51-2.48-.15-.13-.31-.25-.46-.38.03.02.06.03.09.05,1.55.93,3.24,1.43,5,1.43,4.02,0,7.65-2.61,10.21-6.78.03-.05.05-.09.08-.14.04-.07.08-.14.12-.21v-2.48l-4.25-4.51-1.28-1.35c-.11-.11-.17-.24-.19-.38-.06-.4.24-.82.71-.82h11.05c.25,0,.45.13.57.3.18.26.2.63-.06.9l-2.91,3.09-2.62,2.77v2.48s.02.03.02.04c.06.1.12.21.18.31,2.57,4.17,6.19,6.78,10.22,6.78,1.78,0,3.5-.51,5.07-1.47-2.04,1.81-4.42,2.85-6.95,2.85Z"/>
        <path class="cls-4" d="M61.64,79.81s0,0,.01,0c-1.58.97-3.29,1.48-5.09,1.48-4.02,0-7.65-2.61-10.21-6.78-.06-.1-.12-.2-.18-.3,0-.01-.02-.03-.03-.04v-2.48l2.62-2.77,2.92-3.09c.26-.27.24-.64.06-.9-.12-.18-.32-.3-.57-.3h-11.05c-.47,0-.77.42-.7.82.02.13.08.27.19.38l1.28,1.35,4.26,4.5v2.48c-.04.07-.08.14-.13.21-.03.04-.05.09-.08.13-2.56,4.18-6.19,6.78-10.21,6.78-1.76,0-3.45-.5-5-1.43-.03-.02-.06-.03-.09-.05,0,0,0,0,0,0,.15.13.31.26.46.38,1.94,1.57,4.16,2.48,6.5,2.48,3.43,0,6.56-1.9,9.01-5.05h.07c.79,1.02,1.67,1.9,2.59,2.63,1.93,1.54,4.1,2.42,6.42,2.42,2.53,0,4.91-1.04,6.96-2.85Z"/>
        <path class="cls-4" d="M31.85,46.58c.43.34.84.7,1.24,1.08-.4-.39-.81-.74-1.24-1.08Z"/>
        <path class="cls-4" d="M88.51,53.05c-1.38-7.98-3.66-14.47-6.9-19.61l.84-17.79c.21-4.41-.14-8.81-1.04-13.12l-.33-1.63c-.38-.54-1-.89-1.69-.9h-.06c-.44,0-.9.16-1.25.45l-21.86,17.32c-3.08-.48-6.38-.75-10.08-.79h-1.02c-3.71.04-7.01.3-10.09.79L13.15.44c-.34-.28-.79-.44-1.25-.44h-.04c-.71.01-1.32.35-1.69.89l-.34,1.64c-.9,4.31-1.25,8.71-1.04,13.12l.84,17.79c-3.24,5.14-5.52,11.63-6.9,19.61C.97,62.49-.83,77.62.41,87.45c4.83,6.16,10.73,11.23,17.51,14.91,1,.55,2.02,1.06,3.06,1.54,1.03.49,2.09.94,3.15,1.35,1.6.63,3.24,1.18,4.91,1.66,2.76.79,5.62,1.38,8.57,1.74,1.64.21,3.3.35,5,.41.83.04,1.66.06,2.5.06.17,0,.34-.01.51-.01s.34.01.51.01c.79,0,1.57-.01,2.35-.05,1.7-.06,3.36-.19,5-.4,3.14-.38,6.18-1.01,9.11-1.87.01,0,.01-.01.02,0,1.68-.5,3.32-1.07,4.93-1.72.87-.35,1.73-.72,2.58-1.11,1.11-.51,2.18-1.05,3.24-1.63,6.76-3.68,12.65-8.74,17.47-14.89,1.24-9.83-.56-24.96-2.32-34.4ZM67.52,20.13l.2-.32.14-.23,8.67-.54-2.38-.15-3.5-.21h-.01l-2.11-.13.19-.3.3-.47.7-1.11,1.27-.07,5.51-.29-3.77-.19-2.57-.13.07-.12h.01s.03-.05.03-.05l.41-.64.78-1.22h.07l4.95-.21-4.76-.2.07-.11.21-.34.14-.21.03-.04.1-.15,6.53-10.23h.02c.45,0,.89.31.99.8l.13.64.19.91c.31,1.49.53,2.99.69,4.49.26,2.37.36,4.75.24,7.13l-.04.89-.68,14.18v.04l-.06,1.32c-.34-.56-.68-1.11-1.02-1.63-.66-1-1.35-1.93-2.07-2.8-.49-.58-.98-1.13-1.49-1.65-.76-.78-1.55-1.51-2.36-2.17-1.05-.85-2.13-1.61-3.27-2.28h-.01s1.33-.13,1.33-.13l2.99-.27,2.13-.2-3.68-.33h-.04l-5.54-.5c-.05-.03-.11-.06-.17-.08l.44-.7ZM53.25,58.51c.07-1.81.51-3.61,1.21-5.31.67-1.63,1.58-3.16,2.71-4.48.02-.04.06-.07.09-.1.21-.26.44-.5.67-.73.07-.07.13-.14.21-.21l.03-.03c.39-.38.8-.73,1.22-1.07.02,0,.03-.02.05-.04l2.63,9.73c.02.09.07.14.13.19.12.12.29.14.44.07.1-.05.19-.13.22-.26l3.26-12.07.05-.17c1.2-.1,2.42-.05,3.63.19.02.01.03.01.05.01h.02c.4.08.81.19,1.21.31l1.29.39,1.71.52-.22.73-.68,2.28c-.86,2.81-2.59,5.11-4.79,6.73-3.22,2.36-7.46,3.25-11.58,2l-.31-.09-1.47-.45c-.78.58-1.14,1.74-1.75,3.37-.03-.33-.04-.67-.04-1.01,0-.17,0-.33.01-.5ZM28.39,56.27c.04.15.14.22.25.27.15.06.32.02.44-.11.04-.05.08-.09.1-.16l2.62-9.73s.03.03.05.04c.43.34.84.69,1.24,1.08l.02.02c.07.07.14.14.21.21.23.23.46.47.67.73.03.03.06.06.08.1,1.07,1.26,1.96,2.71,2.62,4.25.96,2.24,1.45,4.67,1.28,7.05-.04-.09-.06-.17-.1-.26-.07-.19-.13-.37-.2-.54-.13-.34-.25-.66-.37-.95-.12-.29-.25-.56-.38-.79-.14-.23-.28-.43-.45-.6-.08-.08-.17-.16-.26-.23l-1.77.54c-.06.02-.12.03-.18.04-2.57.75-5.2.67-7.58-.09-3.98-1.25-7.3-4.38-8.61-8.68l-.68-2.26-.23-.75,1.68-.51,1.32-.4c.39-.12.78-.21,1.17-.29,1.25-.26,2.51-.33,3.75-.22l3.31,12.24ZM11.25,4.82l.32-1.55c.11-.5.56-.81,1.02-.8l.23.36,6.29,9.87.14.21.02.04.06.08.05.07.2.33.08.12-4.75.2,4.95.21h.06l.78,1.22.43.66v.02s.01.01.01.01l.08.12-2.58.13-3.75.19,5.54.29,1.24.07.7,1.11.22.35.27.42-2.11.13h-.01l-3.55.22-2.33.14,8.66.54.35.55.09.14.35.56h0c-.05.02-.12.05-.16.08l-5.55.5h-.04l-3.68.33,2.3.21,2.83.26,1.33.12s-.01,0-.01.01c-1.03.6-2.02,1.28-2.98,2.04-.6.47-1.19.98-1.76,1.52-.29.27-.57.55-.85.84-1.38,1.43-2.68,3.07-3.87,4.93-.25.4-.51.79-.75,1.21l-.06-1.21v-.15s-.01-.04-.01-.04l-.71-15.04c-.01-.22,0-.44-.01-.66-.13-3.68.18-7.35.93-10.96ZM66.33,72.24c.08.01.16.02.25.03.21.02.42.04.63.07.05.01.1.01.15.02.22.03.44.06.66.1.04.01.08.01.12.02.04,0,.07.01.11.02.04,0,.07.01.11.02.02,0,.05.01.07.01.24.04.48.09.73.14.04.01.08.02.13.03.04,0,.08,0,.13.03.29.06.58.13.88.21.1.02.2.05.3.08.05.01.11.03.16.04.15.04.29.08.44.13.17.04.32.09.49.14.02.01.05.01.07.02.05.01.09.03.14.05.06.02.13.05.2.07.48.15.95.31,1.42.5.21.08.42.16.63.25.33.13.66.27.98.42.3.14.6.28.89.43.24.11.48.24.72.37.26.13.52.27.77.42.26.14.51.29.75.45.25.15.49.3.73.46.24.15.47.3.7.47.15.1.3.21.45.32.02.02.04.03.06.05.51.36,1,.75,1.46,1.15.2.16.39.33.58.5.04.04.08.07.11.1.17.16.34.32.5.48.08.07.15.14.22.22.1.09.18.18.27.27.09.09.17.18.26.27.02.02.03.04.05.05l.02.02c.62.66,1.17,1.34,1.67,2.03-2.23-2.55-5.32-4.85-9.01-6.53-.43-.2-.86-.38-1.3-.56-.43-.17-.86-.34-1.3-.49-.15-.05-.3-.1-.45-.14-.23-.08-.45-.15-.68-.21-.2-.06-.39-.11-.58-.17-.03-.01-.07-.02-.1-.03-.05-.01-.1-.03-.15-.04-.63-.17-1.27-.32-1.9-.44h-.02c-.21-.04-.42-.08-.63-.11-.32-.06-.64-.11-.95-.15-.32-.03-.63-.06-.93-.09-.05,0-.1-.01-.15-.01-.16-.02-.32-.03-.48-.03-.04,0-.07,0-.11-.01-.28-.02-.56-.03-.83-.03-.84,4.51-3.21,8.51-6.59,11.43-1.34,1.17-2.85,2.17-4.47,2.95-2.74,1.35-5.82,2.1-9.09,2.1s-6.35-.75-9.09-2.1c-1.62-.78-3.13-1.78-4.47-2.95-3.38-2.92-5.75-6.92-6.59-11.43-.24,0-.49.01-.74.03-.05,0-.11,0-.16.01-.24,0-.49.02-.74.05-.21.02-.42.04-.63.06-.03,0-.05.01-.08.01-.16.02-.34.04-.51.07-.24.03-.49.07-.73.11-.19.03-.38.06-.57.11-.31.05-.63.12-.95.2-.06.01-.12.02-.18.04-.14.03-.28.06-.42.11-.05.01-.09.02-.14.04-.08.01-.15.03-.22.05-.04.01-.07.02-.11.03-.01,0-.03.01-.04.01-.2.05-.38.1-.58.17h-.01s-.05,0-.07.02c-.37.11-.74.22-1.1.35-.05.02-.11.03-.16.06-.09.03-.19.06-.28.1-.1.04-.19.07-.29.11-.1.04-.21.08-.31.12-.08.03-.17.06-.25.1-.05.02-.09.04-.14.06-.09.03-.17.07-.26.11-.11.04-.22.08-.32.13-.19.08-.38.17-.57.25-3.69,1.68-6.78,3.98-9.01,6.53.5-.69,1.05-1.37,1.67-2.03l.02-.02s.03-.02.04-.04c.24-.26.49-.52.76-.77.04-.04.08-.08.12-.12.05-.05.11-.1.16-.14.16-.17.33-.32.5-.46.13-.13.27-.25.41-.36.32-.28.65-.55.99-.8.23-.18.46-.36.7-.52.34-.24.68-.48,1.04-.71.43-.29.89-.56,1.35-.83.28-.15.56-.31.85-.46.23-.13.46-.24.69-.36.3-.15.61-.3.92-.44.36-.17.73-.32,1.09-.47s.73-.29,1.1-.42c.09-.04.18-.07.27-.1.11-.04.22-.07.33-.11.1-.03.2-.07.3-.1.06-.02.12-.04.17-.06.07-.03.14-.05.21-.06.09-.03.17-.06.26-.08.21-.07.43-.13.64-.18.01,0,.02-.01.03-.01.03-.01.05-.01.08-.02.08-.02.16-.04.24-.06.08-.02.16-.04.24-.06.25-.07.5-.13.74-.18.1-.03.2-.05.3-.07.27-.06.55-.11.82-.15.09-.02.18-.04.27-.05.28-.05.55-.09.82-.12.09-.01.18-.03.26-.03.09-.01.18-.02.26-.03.03,0,.06-.01.09-.01.1,0,.19-.02.28-.03.11-.01.23-.02.34-.03-.09-.72-.12-1.44-.12-2.18v-.33c-1.4-.15-2.88-.18-4.4-.09-.08.01-.16.01-.23.02-.3.02-.59.04-.89.07-.32.04-.64.07-.96.12-.19.02-.37.05-.55.08-.29.05-.59.1-.89.16-.15.03-.29.06-.44.09-.11.02-.23.04-.34.07-.11.03-.22.05-.33.08-.23.05-.46.11-.68.16-3.93,1.01-7.36,2.73-10.01,4.85.17-.17.35-.34.54-.5.03-.03.06-.05.09-.08.13-.12.26-.24.4-.35.24-.21.5-.42.76-.62.01,0,.01-.01.02-.01.03-.03.06-.05.1-.08.03-.02.07-.05.1-.08.11-.08.22-.16.34-.24.14-.11.3-.22.45-.32.27-.19.54-.37.82-.54.34-.22.69-.42,1.05-.62.26-.15.52-.29.79-.42.03-.03.07-.04.1-.06.07-.04.14-.07.21-.11.24-.12.49-.24.74-.35.3-.14.62-.28.93-.41.4-.17.8-.33,1.22-.48.36-.13.74-.26,1.12-.38.21-.07.43-.14.66-.2.34-.11.68-.2,1.03-.29.34-.09.68-.17,1.02-.24.26-.06.51-.11.77-.16.24-.06.48-.09.72-.13.02,0,.04-.01.06-.01l.1-.02c.15-.02.29-.04.44-.07.15-.03.29-.04.44-.06.16-.03.32-.04.48-.06.03,0,.07,0,.11-.01h.06c.15-.02.29-.03.43-.05.04,0,.08-.01.12-.01.09,0,.18-.01.27-.02.18,0,.36-.02.54-.03.47-.03.93-.04,1.38-.04.33,0,.65,0,.97.02.14.01.28.01.41.02h.08c.06,0,.12.01.18.01.04,0,.08.01.12.01.05,0,.1,0,.15,0,.09.01.18.01.27.02.49-.65,1.03-1.28,1.6-1.87-.33-.15-.67-.3-1.02-.44-.18-.07-.37-.14-.56-.2-.23-.09-.46-.17-.69-.25-.09-.03-.18-.06-.27-.09-.4-.13-.81-.25-1.22-.36-.4-.1-.79-.2-1.2-.29-.34-.07-.69-.14-1.04-.2-.02,0-.04,0-.05,0-.33-.06-.67-.11-1-.15-.06-.01-.13-.02-.19-.03-.2-.03-.4-.06-.6-.07-.1-.01-.2-.02-.3-.03-.05-.01-.1-.01-.15-.02-.26-.03-.52-.05-.79-.06-.15-.02-.3-.03-.45-.03h-.08s-.01-.01-.02,0h-.02c-.09-.01-.17-.01-.26-.01-.35-.02-.71-.03-1.07-.03-4.06,0-7.81.82-10.91,2.21.21-.12.43-.24.65-.35.14-.08.27-.15.41-.21.19-.1.4-.19.6-.28.07-.04.13-.07.2-.1.03-.02.07-.03.1-.04.02-.01.03-.01.05-.02.01-.01.03-.01.04-.02.28-.12.57-.24.87-.36.14-.05.29-.1.44-.16.03-.01.06-.02.09-.03.3-.11.6-.21.91-.3.35-.11.71-.22,1.08-.31.11-.03.22-.06.33-.09.32-.08.65-.16.99-.23.19-.04.38-.07.58-.11.07-.01.14-.03.21-.03.07-.01.13-.03.2-.04.17-.03.33-.06.5-.08.17-.03.34-.05.52-.07.2-.03.39-.06.59-.08.03,0,.07-.01.1-.01.17-.02.34-.04.51-.05.23-.02.45-.04.68-.05.17,0,.35-.02.52-.03.24-.02.49-.02.74-.03.24-.01.48-.01.73-.01.96,0,1.9.05,2.83.14.29.03.57.06.85.1.05,0,.09,0,.14.02.19.02.39.05.59.08.2.03.39.06.58.1.38.07.76.14,1.14.23.29.06.58.13.86.2.05,0,.09.02.14.03.25.06.49.13.72.2.03.01.07.02.1.03.13.04.26.08.39.12.23.07.46.15.68.23.03.01.06.02.09.03.37.13.74.27,1.1.42.07.02.14.05.21.08,2.23-2,4.94-3.61,7.98-4.69.02,0,.04-.02.07-.03.01,0,.02-.01.03-.01.08-.03.17-.06.25-.08l2.15-.5,5.29-32.68c.29-.25.68-.38,1.07-.38s.78.13,1.08.38l5.28,32.68,2.16.5c.08.02.16.05.24.08.01,0,.02.01.03.01.03.01.05.02.08.03,3.03,1.08,5.74,2.69,7.97,4.69.07-.03.14-.06.21-.08.24-.1.47-.19.71-.28.15-.05.3-.11.45-.16.25-.09.5-.18.76-.25.11-.04.23-.08.34-.11.19-.05.38-.11.57-.16.19-.06.38-.11.57-.15.39-.1.79-.19,1.19-.27.34-.07.69-.13,1.04-.18.25-.04.51-.08.77-.11.32-.05.65-.09.99-.12.92-.09,1.87-.14,2.83-.14.24,0,.49,0,.74.01.24.01.48.01.73.03.17.01.35.02.52.03.23.01.45.03.68.05.14,0,.29.03.43.04.05.01.11.01.16.02h.04c.17.02.33.04.49.07.17.02.35.05.52.07.03,0,.06.01.08.01.44.07.87.14,1.29.23.45.09.89.19,1.32.3.44.11.87.23,1.28.36.4.13.78.26,1.16.4.04,0,.09.03.13.04.36.14.72.28,1.06.43.02.01.04.02.06.03t.02,0s.02.01.03.01c.14.06.27.12.41.19.14.06.28.13.42.2.36.18.72.37,1.06.56-3.09-1.39-6.84-2.21-10.9-2.21-.37,0-.74.01-1.1.03h-.01c-.08,0-.16,0-.24.01h-.11c-.41.02-.82.05-1.22.09-.03,0-.07.01-.1.01-.02,0-.04,0-.06.01-.12.01-.24.02-.35.03-.18.02-.35.04-.52.07-.05,0-.1.01-.15.02-.36.04-.72.1-1.07.16-.37.06-.73.13-1.09.21-.29.06-.57.13-.85.21-.17.04-.34.08-.51.13-.04.01-.09.02-.13.04-.07.01-.13.03-.19.05-.08.01-.17.04-.25.07-.09.02-.17.05-.26.08-.06.02-.12.04-.18.06-.13.03-.26.08-.39.12-.11.04-.21.07-.31.11-.05.01-.11.03-.16.06-.06.02-.11.04-.16.06-.09.03-.18.06-.26.09-.08.03-.16.06-.25.1-.01,0-.03,0-.04.01-.35.14-.69.29-1.03.44.58.59,1.11,1.22,1.61,1.87.09-.01.18-.01.27-.02.05,0,.11,0,.16,0h.09c.23-.02.45-.03.68-.04.32-.01.64-.02.97-.02.22,0,.45,0,.68,0,.23,0,.46.02.69.03.19.01.37.02.56.03.09.01.19.02.28.03.18.01.37.03.55.05h.03s.06.01.09.01c.17.01.34.03.51.06.09.01.18.03.27.04.35.05.7.1,1.06.17.39.07.78.15,1.17.23.35.08.7.16,1.05.25s.69.18,1.03.29c.22.06.44.13.66.2.01,0,.02.01.03.01.26.08.52.17.78.26.11.04.22.08.33.12.35.12.69.26,1.03.4.37.15.74.31,1.1.48.51.23,1.01.48,1.49.74.33.18.65.36.96.55.22.13.44.27.65.41.22.14.43.28.64.42.28.19.54.38.8.58.01.01.03.02.04.03.02.02.04.03.06.04.01,0,.03.02.04.03,0,.01.01.01.01.01.01,0,.01.01.02.02.01,0,.01,0,.02,0,.01.01.03.02.04.03.02.02.04.03.05.04.2.16.4.32.59.48l.18.15c.13.11.26.22.38.34.19.16.37.33.54.5-2.64-2.12-6.08-3.84-10-4.85-.23-.05-.45-.11-.67-.16-.23-.05-.46-.11-.68-.15-.15-.03-.29-.06-.44-.09-.3-.06-.6-.11-.89-.16-.19-.03-.38-.06-.57-.08-.32-.05-.64-.09-.96-.12-.28-.03-.55-.05-.83-.07-.03-.01-.07-.01-.1-.01-.06,0-.11,0-.17-.01-1.53-.09-3.01-.06-4.41.09v.33c0,.74-.03,1.46-.11,2.18.11.01.22.02.34.03Z"/>
      </g>
      <g>
        <path class="cls-1" d="M18.7,118l18.98-3.95c1.68-.15,2.79-1.47,3.13-2.95-.3-.56-.49-1.18-.49-1.86v-8.56c0-.68.19-1.3.49-1.86-.34-1.48-1.45-2.8-3.13-2.95l-18.98-3.95c-.14-.03-.29-.04-.43-.04-1.12,0-2.08.91-2.08,2.08v11s0,5.8,0,5.8v5.2c0,1.17.96,2.08,2.08,2.08.14,0,.28-.01.43-.04ZM19.24,101.29c0-.07,0-.12,0-.18h0s0-.03,0-.04c-.05-.68.46-1.14,1.19-1.15l14.67-.05c.54,0,.89.53.94.93,0,.07,0,.13,0,.2,0,0,0,.02,0,.02,0,.02,0,.03,0,.05.03.41-.25,1.06-.88,1.07l-14.72.09h-.03c-.63,0-1.12-.37-1.17-.95ZM34.98,106.12s-.01,0-.02,0l-14.67-.07c-.59,0-.95-.49-1.05-.91-.02-.05,0-.12,0-.2,0-.07-.02-.14,0-.2.09-.42.46-.9,1.05-.91l14.67-.07s.01,0,.02,0c.3,0,.55.1.73.27.18.17.3.41.34.67,0,.06,0,.13,0,.2v.02s0,0,0,0c0,0,0,0,0,0v.02c0,.07,0,.14,0,.2-.04.26-.15.5-.34.67s-.43.27-.73.27ZM19.24,108.62c.05-.58.54-.95,1.17-.95h0s0,0,0,0h.03l14.72.09c.63,0,.91.66.88,1.07,0,.02,0,.03,0,.05,0,0,0,0,0,.02,0,.07,0,.13,0,.2-.06.4-.4.93-.94.93l-14.67-.05c-.73,0-1.23-.47-1.19-1.15,0,0,0-.02,0-.03h0c0-.07,0-.12,0-.19Z"/>
        <path class="cls-4" d="M36.04,105.18c0-.06,0-.13,0-.2v-.02s0,0,0,0c0,0,0,0,0,0v-.02c0-.07,0-.14,0-.2-.04-.26-.15-.5-.34-.67-.18-.17-.43-.27-.73-.27,0,0-.01,0-.02,0l-14.67.07c-.59,0-.95.49-1.05.91-.02.05,0,.12,0,.2,0,.07-.02.14,0,.2.09.42.46.9,1.05.91l14.67.07s.01,0,.02,0c.3,0,.55-.1.73-.27s.3-.41.34-.67Z"/>
        <path class="cls-4" d="M19.24,108.83c-.05.68.46,1.14,1.19,1.15l14.67.05c.54,0,.89-.53.94-.93,0-.07,0-.13,0-.2,0,0,0-.02,0-.02,0-.02,0-.03,0-.05.03-.41-.25-1.06-.88-1.07l-14.72-.09h-.03s0,0,0,0c-.63,0-1.12.37-1.17.95,0,.07,0,.12,0,.18h0s0,.03,0,.04Z"/>
        <path class="cls-4" d="M20.4,102.25h.03l14.72-.09c.63,0,.91-.66.88-1.07,0-.02,0-.03,0-.05,0,0,0,0,0-.02,0-.07,0-.13,0-.2-.06-.4-.4-.93-.94-.93l-14.67.05c-.73,0-1.23.47-1.19,1.15,0,0,0,.02,0,.03h0c0,.07,0,.12,0,.19.05.58.54.95,1.17.95Z"/>
        <path class="cls-1" d="M75.05,93.95c0-1.17-.96-2.08-2.08-2.08-.14,0-.28.01-.43.04l-18.98,3.95c-1.68.15-2.79,1.47-3.13,2.95.3.56.49,1.18.49,1.86v8.56c0,.68-.19,1.3-.49,1.86.34,1.48,1.45,2.8,3.13,2.95l18.98,3.95c.14.03.29.04.43.04,1.12,0,2.08-.91,2.08-2.08v-11s0-5.8,0-5.8v-5.2ZM72.01,108.62c0,.07,0,.12,0,.18h0s0,.03,0,.04c.05.68-.46,1.14-1.19,1.15l-14.67.05c-.54,0-.89-.53-.94-.93,0-.07,0-.13,0-.2,0,0,0-.02,0-.02,0-.02,0-.03,0-.05-.03-.41.25-1.06.88-1.07l14.72-.09h0s0,0,0,0h.03c.63,0,1.12.37,1.17.95ZM72.01,101.08s0,.02,0,.03h0c0,.07,0,.12,0,.19-.05.58-.54.95-1.17.95h-.03l-14.72-.09c-.63,0-.91-.66-.88-1.07,0-.02,0-.03,0-.05,0,0,0,0,0-.02,0-.07,0-.13,0-.2.06-.4.4-.93.94-.93l14.67.05c.73,0,1.23.47,1.19,1.15ZM55.31,105.55c-.06-.11-.09-.24-.11-.37,0-.06,0-.13,0-.2v-.02s0,0,0,0c0,0,0,0,0,0v-.02c0-.07,0-.14,0-.2.02-.13.06-.26.11-.37.17-.34.5-.57.95-.57,0,0,.01,0,.02,0l14.67.07c.59,0,.95.49,1.05.91.02.05,0,.12,0,.2,0,.07.02.14,0,.2-.09.42-.46.9-1.05.91l-14.67.07s-.01,0-.02,0c-.45,0-.78-.23-.95-.57Z"/>
        <path class="cls-4" d="M77.05,99.15v-5.2c0-2.25-1.83-4.08-4.08-4.08-.28,0-.56.03-.84.09l-18.88,3.93c-1.98.22-3.6,1.54-4.4,3.35-.56-.31-1.2-.5-1.88-.5h-2.73c-.68,0-1.32.19-1.88.5-.8-1.81-2.42-3.12-4.4-3.35l-18.88-3.93c-.28-.06-.56-.09-.84-.09-2.25,0-4.08,1.83-4.08,4.08v11s0,5.8,0,5.8v5.2c0,2.25,1.83,4.08,4.08,4.08.28,0,.56-.03.84-.09l18.88-3.93c1.98-.22,3.6-1.54,4.4-3.35.56.31,1.2.5,1.88.5h2.73c.68,0,1.32-.19,1.88-.5.8,1.81,2.42,3.12,4.4,3.35l18.88,3.93c.28.06.56.09.84.09,2.25,0,4.08-1.83,4.08-4.08v-11s0-5.8,0-5.8ZM75.05,110.76v5.2c0,1.17-.96,2.08-2.08,2.08-.14,0-.28-.01-.43-.04l-18.98-3.95c-1.68-.15-2.79-1.47-3.13-2.95.3-.56.49-1.19.49-1.86v-8.56c0-.68-.19-1.3-.49-1.86.34-1.48,1.45-2.8,3.13-2.95l18.98-3.95c.14-.03.29-.04.43-.04,1.12,0,2.08.91,2.08,2.08v11s0,5.8,0,5.8ZM46.98,111.17h-2.73c-1.07,0-1.94-.87-1.94-1.94v-8.56c0-1.07.87-1.94,1.94-1.94h2.73c1.07,0,1.94.87,1.94,1.94v8.56c0,1.07-.87,1.94-1.94,1.94ZM16.19,115.96v-11s0-5.8,0-5.8v-5.2c0-1.17.96-2.08,2.08-2.08.14,0,.28.01.43.04l18.98,3.95c1.68.15,2.79,1.47,3.13,2.95-.3.56-.49,1.18-.49,1.86v8.56c0,.68.19,1.3.49,1.86-.34,1.48-1.45,2.8-3.13,2.95l-18.98,3.95c-.14.03-.29.04-.43.04-1.12,0-2.08-.91-2.08-2.08Z"/>
        <path class="cls-4" d="M56.15,99.88c-.54,0-.89.53-.94.93,0,.07,0,.13,0,.2,0,0,0,.02,0,.02,0,.02,0,.03,0,.05-.03.41.25,1.06.88,1.07l14.72.09h.03c.63,0,1.12-.37,1.17-.95,0-.07,0-.12,0-.18h0s0-.03,0-.04c.05-.68-.46-1.14-1.19-1.15l-14.67-.05Z"/>
        <path class="cls-4" d="M70.84,107.66h-.03s0,0,0,0h0l-14.72.09c-.63,0-.91.66-.88,1.07,0,.02,0,.03,0,.05,0,0,0,0,0,.02,0,.07,0,.13,0,.2.06.4.4.93.94.93l14.67-.05c.73,0,1.23-.47,1.19-1.15,0,0,0-.02,0-.03h0c0-.07,0-.12,0-.19-.05-.58-.54-.95-1.17-.95Z"/>
        <path class="cls-4" d="M56.27,106.12s.01,0,.02,0l14.67-.07c.59,0,.95-.49,1.05-.91.02-.05,0-.12,0-.2,0-.07.02-.14,0-.2-.09-.42-.46-.9-1.05-.91l-14.67-.07s-.01,0-.02,0c-.45,0-.78.23-.95.57-.06.11-.09.24-.11.37,0,.06,0,.13,0,.2v.02s0,0,0,0c0,0,0,0,0,0v.02c0,.07,0,.14,0,.2.02.13.06.26.11.37.17.34.5.57.95.57Z"/>
        <rect class="cls-1" x="42.32" y="98.74" width="6.61" height="12.44" rx="1.94" ry="1.94"/>
      </g>
    </g>
  </g>
</svg>